<svg xmlns="http://www.w3.org/2000/svg" viewBox="0 0 796 142"><defs><style>.a{fill:#fff;}.b{fill:#c32e45;}</style></defs><title>Artboard 3</title><path class="a" d="M121.55,127.57V16.05a2,2,0,0,1,2-2h69.18a2,2,0,0,1,2,2V37a2,2,0,0,1-2,2H152.63a2,2,0,0,0-2,1.91,7.68,7.68,0,0,0,.55,2.87,2.48,2.48,0,0,1,.13.76c-.26,9.67-2,12.08,1.15,12.05,8.09-.08,16.17,0,24.26,0h14.51a2,2,0,0,1,2,2V77.92a2,2,0,0,1-2,2H148.39a2,2,0,0,0-2,2v4.92c0,4.23.08,8.45,0,12.67-.06,1.84.42,2.43,2.36,2.42,14.49-.08,29,0,43.48,0h.49a2,2,0,0,1,2,2v19.33c-.44,0-.27.09-.11.14.32-.67.66-1.33,1-2q22.85-52.74,45.65-105.49c.79-1.82,1.66-2.49,3.68-2.45,7.28.14,14.57.09,21.85,0A2.32,2.32,0,0,1,269.28,15q23.94,55.23,48,110.43v0a2,2,0,0,1-1.81,2.72H310c-6.08-.49-12.16-.52-18.24-.44a1.94,1.94,0,0,1-1.84-1.21c-3-7.11-6.08-14.16-9-21.27a2.57,2.57,0,0,0-2.77-1.93q-23,.12-45.93,0a2,2,0,0,0-1.82,1.2c-3.07,7.26-6.27,14.46-9.39,21.69-.41.94-.82,1.5-2,1.5q-48.46-.06-96.93,0A1.38,1.38,0,0,1,121.55,127.57Zm146.2-51.92c-3.54-8.05-7-16-10.58-24.09a2,2,0,0,0-3.63,0c-3.55,8.16-7,16.08-10.46,24.1a2,2,0,0,0,1.81,2.76h21.05A2,2,0,0,0,267.75,75.65Z"/><path class="a" d="M321.47,128.16a2.45,2.45,0,0,1-2.45-2.45V16.58c0-2.71,0-2.71,2.73-2.71,12.75,0,25.5.05,38.24,0,13.59-.07,26.23,3.06,37.23,11.28,14,10.47,21.57,24.61,22.53,42,1.48,26.76-11.44,47.7-40.9,60.35a5.35,5.35,0,0,1-1.93.42c-18.48.43-37,.24-55.45.24Zm22.41-25.73c4.74,0,9.31.06,13.87,0a62.15,62.15,0,0,0,9.47-.47c15.61-2.72,25.15-12.79,26.61-28.61,1.42-15.32-5.79-27.28-22.93-34-9-.69-17.92-.38-27-.38Z"/><path class="a" d="M14.77,16.33A2.26,2.26,0,0,1,17,14.07h0c12.86,0,25.71,0,38.57,0C78.17,14,98,22.73,111.87,48.54a2.66,2.66,0,0,1,.21.53c6.46,23.85,3.36,44.52-11.63,61-10.25,11.23-23.4,16.76-38.61,18-.49,0-1.31.08-1.8.08-14.31.05-28.61,0-42.92,0H17a2.26,2.26,0,0,1-2.26-2.25ZM39.64,99.58a2.26,2.26,0,0,0,2.25,2.26h15.2c18,0,30.56-11.26,32.5-29.09A30.79,30.79,0,0,0,61,38.43c-6.85-.46-13.75-.28-20.62-.38a3.17,3.17,0,0,0-.76.2Z"/><path class="a" d="M777.63,14.87,722,61.56a2,2,0,0,0-.14,2.91L785,128h-2.46s-22.42.45-32.56.47a1.94,1.94,0,0,1-1.4-.59q-23.22-23.56-46.49-47.08l-.16-.17a2,2,0,0,0-2.7-.21,92.73,92.73,0,0,0-8.53,7.54,2.19,2.19,0,0,1-.5.36c-2.55,1.3-3.43,2.17-3.42,4.06.05,11.23,0,22.45.5,33.68v1.22a2,2,0,0,1-2,2H664a2,2,0,0,1-2-2V126q0-54.78,0-109.57c0-1.63.49-2,2.06-2,7.07.08,14.14,0,21.21,0h0a2,2,0,0,1,2,2V57.58c.64-.46,1.05-.71,1.41-1q24.12-20.24,48.23-40.5a6.41,6.41,0,0,1,4.51-1.63c11.42.07,22.84,0,34.26,0h1.81Z"/><path class="a" d="M585.54,123.5a60.81,60.81,0,0,1-17.2,6.57c-34.16,7.49-66.49-14.44-72.62-48.81a60.23,60.23,0,0,1,31.34-63.45c18.81-9.78,37.79-9.49,56.68,0,.57.29,1.11.63,1.78,1l.2.11c-2.75,1.94-5.41,3.71-7.94,5.64a50.54,50.54,0,0,0-11,11.79,2.05,2.05,0,0,1-1.1.93,2.29,2.29,0,0,1-1.33-.07,35.15,35.15,0,0,0-43.65,28.65c-3.16,20.4,12.54,39.53,33.05,40.27a36.31,36.31,0,0,0,11.68-1.47A59.64,59.64,0,0,0,585.54,123.5Z"/><path class="a" d="M605.67,104.66a33.4,33.4,0,0,1-4.06-1.45,34,34,0,0,1-16.07-14.34,35.47,35.47,0,0,0,4.86-16.09,32.9,32.9,0,0,0-4.18-18.08,2.54,2.54,0,0,1-.37-1.81,3,3,0,0,1,.54-1.15A35.69,35.69,0,0,1,601.6,39.1c.5-.22,1-.43,1.52-.62.3-.12.59-.26.9-.37a3.59,3.59,0,0,1,.63-.18c.7-.15,1.23,0,1.78.92A60.52,60.52,0,0,1,605.67,104.66Z"/><path class="a" d="M585.76,19.17c-2.75,1.94-5.41,3.7-7.94,5.63a50.54,50.54,0,0,0-11.05,11.79,1.88,1.88,0,0,1-2.44.85A35.16,35.16,0,0,0,520.69,66.1c-3.16,20.4,12.54,39.53,33.06,40.27A35.25,35.25,0,0,0,590.44,73a32.87,32.87,0,0,0-4.17-18.08c-1.77-3.21,2-3.46,9.41-14.37,7.71-.48,9.1-4.16,10.78-1.48,22.16,35.36,3.19,82.17-38.08,91.22-34.15,7.49-66.49-14.44-72.61-48.81A60.21,60.21,0,0,1,527.1,18c18.81-9.78,37.8-9.49,56.68,0C584.4,18.35,585,18.73,585.76,19.17Z"/><path class="b" d="M585.54,88.87a35.18,35.18,0,0,1-20.16,15.82A60.87,60.87,0,0,1,556.54,59a59,59,0,0,1,9.09-21.73,60.72,60.72,0,0,1,19.89-18.47A59,59,0,0,1,608.7,11.2c16.7-1.83,31.22,2.27,43.58,11.88L635.63,42.24a34.87,34.87,0,0,0-31-4.31c-.52.17-1,.35-1.53.55s-1,.39-1.52.62a35,35,0,0,0-15.75,13.79c-.18.27-.34.55-.51.83A35.18,35.18,0,0,0,585.54,88.87Z"/><path class="b" d="M658.64,113.79a59.67,59.67,0,0,1-52,17,62,62,0,0,1-21.07-7.29,59.41,59.41,0,0,0,20.13-18.84,35.12,35.12,0,0,0,33.69-7.61Z"/><path class="b" d="M478.61,121.44c1.37,0,2.48.72,2.48,1.6v4c0,.88-1.11,1.6-2.48,1.6H464.92v4c0,.88-1.1,1.6-2.47,1.6H447.51c-1.37,0-2.47-.72-2.47-1.6v-25h-.33c-1.36,0-2.47-.72-2.47-1.6v0c0-.88,1.11-1.6,2.47-1.6H445V60.41l10.38,6.35,9.5-5.81v43.57h.74c1.37,0,2.48.72,2.48,1.6v0c0,.88-1.11,1.6-2.48,1.6h-.74v3.63h13.69c1.37,0,2.48.72,2.48,1.6v4c0,.88-1.11,1.6-2.48,1.6h-3.74v2.82Z"/><path class="b" d="M422,13.85l67.77.05c1.37,0,2.47.72,2.47,1.61V39.43a1.08,1.08,0,0,1-.1.43l-26,15.91-1.25.75h0l-9.5,5.82L445,56v0L420.32,40.6a1.41,1.41,0,0,1-.77-1.16v-24C419.55,14.57,420.66,13.85,422,13.85Zm10.89,16.07h45.37c3.26,0,5.9-1.71,5.9-3.83s-2.64-3.82-5.9-3.82H432.92c-3.26,0-5.91,1.71-5.91,3.82S429.66,29.92,432.92,29.92Z"/></svg>