<?xml version="1.0" encoding="utf-8"?>
<!-- Generator: Adobe Illustrator 22.1.0, SVG Export Plug-In . SVG Version: 6.00 Build 0)  -->
<svg version="1.1" id="Layer_1" xmlns="http://www.w3.org/2000/svg" xmlns:xlink="http://www.w3.org/1999/xlink" x="0px" y="0px"
	 viewBox="0 0 333 421" style="enable-background:new 0 0 333 421;" xml:space="preserve">
<style type="text/css">
	.st0{fill:#343434;}
	.st1{fill:#FFFFFF;}
	.st2{fill:#4DC1BE;}
</style>
<title>Artboard 2</title>
<path class="st0" d="M314.9,366.7H33.1c0-0.6,0.1-1.2,0.1-1.8c0-49.3,0-98.5,0-147.8c0-1.3,0.1-2.7,0.4-4
	c1.7-8.4,7.1-13.7,14.5-17.1c7-3.1,14.5-4.6,22.1-4.5c67-0.1,134-0.1,201,0c4.1,0,8.1,0.1,12.2,0.5c6,0.4,11.9,1.9,17.4,4.3
	c5.8,2.6,10.5,6.4,12.8,12.6c0.9,2.8,1.3,5.7,1.2,8.6c0,49.1,0,98.2,0,147.3C314.8,365.4,314.9,366.1,314.9,366.7z"/>
<path class="st1" d="M112.1,181.9c0,0.8-0.7,1.5-1.5,1.5H69.1v-1.3c0.3-15.3,0.3-30.6,0.3-45.9c0-10.6-0.2-21.2,0-31.8
	c0.2-8.1,1.5-16.1,3.8-23.8c8.6-29.9,30.6-54,59.6-65.3c7.8-3,15.9-5,24.2-6.1c7.2-0.9,14.4-1,21.6-0.3c18.9,1.8,36.8,9.1,51.7,20.9
	C248.9,44.6,261,64.3,266.7,89c1.1,4.9,1.6,10,1.5,15.1c-0.1,9,0,18-0.1,27c0,17.2,0,34.4-0.1,51.6v0.2c0,0.8-0.7,1.5-1.5,1.5h-40
	c-0.8,0-1.5-0.7-1.5-1.5v-0.7c0.3-16,0.3-31.9,0.3-47.9c0-8.6,0-17.2,0-25.7c-0.1-24.2-12.5-43.1-38.1-55.3c-2-1-4.2-1.6-6.4-1.8
	c-30.5-2.8-51.4,8.5-63.3,31.9c-3.6,7.1-5.5,15-5.5,22.9C111.9,131.5,112,156.7,112.1,181.9L112.1,181.9z"/>
<path class="st2" d="M32.3,378.3c0-1,0.8-1.9,1.8-1.9l0,0h279.8c1,0,1.8,0.8,1.9,1.8c0,1.8,0,3.6,0,5.5c0.3,8.6-3.9,14.9-10.9,19.4
	c-5.1,3.3-11.1,5-17.2,4.9c-75.8,0-151.6,0-227.4,0c-9.1,0-17.1-3.1-23.2-10.1c-3.2-3.4-4.9-7.9-4.8-12.6
	C32.3,383,32.3,380.7,32.3,378.3z"/>
<path class="st2" d="M291.3,323.3c0,2.2,1.9,4,4.1,4l0,0H306c2.2,0.1,4.1-1.7,4.2-4l0,0v-21.9h10.5c2.2,0,4.1-1.7,4.1-4l0,0v-23.8
	c0-2.2-1.9-4-4.1-4l0,0h-64.8v-0.5c0-2.2-1.9-4-4.1-4l0,0l0,0c-2.2-0.1-4.1,1.7-4.2,4l0,0v0.5H133.2l16.5,16.6l-15.1,15.2h112.9v1.2
	c0,2.2,1.9,4,4.1,4l0,0l0,0c2.2,0.1,4.1-1.7,4.2-4l0,0v-1.2h9.4v21.9c0,2.2,1.9,4,4.1,4l0,0h10.5c2.2,0.1,4.1-1.7,4.2-4l0,0v-6h7.3
	L291.3,323.3z"/>
<path class="st1" d="M121.7,269.6L121.7,269.6l-39.9-39.5c-0.8-0.8-1.9-1.2-3-1.2H16.7c-2.2-0.1-4.1,1.7-4.2,4l0,0l0.1,108.3
	c0,2.2,1.9,4,4.1,4l0,0h62c0.4,0,0.8-0.1,1.1-0.2l41.2-41.6l1.9-2l0,0l15.1-15.2L121.7,269.6z M76,299.8
	c-0.1,17.2-13.5,31.4-30.7,32.3h-0.2c-0.3,0-0.5,0-0.8,0c-5.3,0.1-9.8-4.1-9.9-9.4v-72.5c0.1-5.3,4.6-9.6,9.9-9.4l0,0
	c0.3,0,0.7,0,1,0c17.2,0.9,30.7,15.1,30.8,32.4v26.6H76z"/>
</svg>
