<svg xmlns="http://www.w3.org/2000/svg" viewBox="0 0 333 421"><defs><style>.a{fill:#343434;}.b{fill:#fff;}.c{fill:#c32e45;}</style></defs><title>Artboard 2</title><path class="a" d="M314.89,366.74H33.13c0-.6.12-1.19.12-1.78q0-73.9,0-147.82a19.55,19.55,0,0,1,.38-4c1.71-8.35,7.07-13.66,14.52-17.14a52.08,52.08,0,0,1,22.14-4.5q100.49-.12,201,0c4.06,0,8.14.15,12.2.48a51.69,51.69,0,0,1,17.35,4.3c5.78,2.62,10.48,6.39,12.83,12.55a23.69,23.69,0,0,1,1.18,8.61q0,73.67,0,147.33C314.84,365.38,314.87,366.06,314.89,366.74Z"/><path class="b" d="M112.06,181.92a1.5,1.5,0,0,1-1.5,1.49H69.06v-1.28c.27-15.31.28-30.62.27-45.93,0-10.61-.17-21.21,0-31.81a90.61,90.61,0,0,1,3.76-23.83,99.66,99.66,0,0,1,59.58-65.33,101.27,101.27,0,0,1,24.19-6.05,94.51,94.51,0,0,1,21.65-.27,98.06,98.06,0,0,1,51.67,20.88Q258.21,52,266.66,89a64.17,64.17,0,0,1,1.53,15.07c-.13,9-.05,18-.06,27q0,25.78-.07,51.59v.23a1.5,1.5,0,0,1-1.5,1.49h-40a1.5,1.5,0,0,1-1.5-1.49v-.74c.34-16,.34-31.91.34-47.87,0-8.57,0-17.15,0-25.72-.08-24.24-12.54-43.1-38.13-55.33a19,19,0,0,0-6.43-1.77c-30.48-2.8-51.45,8.55-63.3,31.85A50.46,50.46,0,0,0,112,106.25q-.1,37.83.1,75.67Z"/><path class="c" d="M32.27,378.27a1.85,1.85,0,0,1,1.84-1.86H313.86a1.85,1.85,0,0,1,1.85,1.82c0,1.82,0,3.64,0,5.46.26,8.65-3.88,14.88-10.88,19.39a31.09,31.09,0,0,1-17.17,4.9Q174,408,60.24,408c-9.15,0-17.1-3.06-23.21-10.06a17.92,17.92,0,0,1-4.78-12.61C32.31,383,32.28,380.67,32.27,378.27Z"/><path class="c" d="M291.33,323.28a4.06,4.06,0,0,0,4.15,4H306a4.06,4.06,0,0,0,4.16-4V301.41h10.46a4.06,4.06,0,0,0,4.15-4V273.57a4.06,4.06,0,0,0-4.15-4H255.83v-.51a4.06,4.06,0,0,0-4.16-4h0a4.06,4.06,0,0,0-4.16,4v.51H133.18l16.46,16.6-15.08,15.2H247.48v1.17a4.06,4.06,0,0,0,4.16,4h0a4.06,4.06,0,0,0,4.16-4v-1.17h9.4v21.87a4.06,4.06,0,0,0,4.15,4h10.48a4.06,4.06,0,0,0,4.16-4v-6h7.31Z"/><path class="b" d="M121.74,269.61h-.09L81.84,230.09a4.25,4.25,0,0,0-3-1.22H16.68a4.07,4.07,0,0,0-4.16,4l.13,108.33a4.06,4.06,0,0,0,4.16,4h62a4.22,4.22,0,0,0,1.12-.17l41.22-41.56,1.94-2h0l15.08-15.2ZM76,299.83a32.48,32.48,0,0,1-30.74,32.33h-.19a7.38,7.38,0,0,1-.82,0,9.69,9.69,0,0,1-9.92-9.44V250.24a9.68,9.68,0,0,1,9.92-9.44c.34,0,.68,0,1,0A32.46,32.46,0,0,1,76,273.18Z"/></svg>